<svg width="107" height="92" viewBox="0 0 107 92" fill="none" xmlns="http://www.w3.org/2000/svg">
<rect width="107" height="92" rx="24" fill="#F9F9F9"/>
<path d="M58.1406 45.75C58.1406 48.2355 56.6887 50.25 54.2031 50.25H44.9219C42.4363 50.25 40.9844 48.2355 40.9844 45.75M59.125 40.125C60.3674 40.125 61.375 41.3843 61.375 42.9375C61.375 44.4907 60.3674 45.75 59.125 45.75H40C38.7576 45.75 37.75 44.4907 37.75 42.9375C37.75 41.3843 38.7576 40.125 40 40.125" stroke="#808080" stroke-width="2" stroke-miterlimit="10" stroke-linecap="round"/>
<path d="M40 35.9063V35.8908C40 32.0236 43.1641 30 47.0312 30H52.0938C55.9609 30 59.125 32.0391 59.125 35.9063V35.8908M52.4453 24.375L52.9684 28.8729M59.6875 40.125H48.1077C47.9587 40.1251 47.8159 40.1842 47.7105 40.2895L45.824 42.176C45.7979 42.2022 45.7668 42.2229 45.7327 42.2371C45.6986 42.2512 45.662 42.2585 45.625 42.2585C45.588 42.2585 45.5514 42.2512 45.5173 42.2371C45.4832 42.2229 45.4521 42.2022 45.426 42.176L43.5395 40.2895C43.4341 40.1842 43.2913 40.1251 43.1423 40.125H39.4375C38.9899 40.125 38.5607 39.9472 38.2443 39.6307C37.9278 39.3143 37.75 38.8851 37.75 38.4375C37.75 37.9899 37.9278 37.5607 38.2443 37.2443C38.5607 36.9278 38.9899 36.75 39.4375 36.75H59.6875C60.1351 36.75 60.5643 36.9278 60.8807 37.2443C61.1972 37.5607 61.375 37.9899 61.375 38.4375C61.375 38.8851 61.1972 39.3143 60.8807 39.6307C60.5643 39.9472 60.1351 40.125 59.6875 40.125Z" stroke="#808080" stroke-width="2" stroke-miterlimit="10" stroke-linecap="round"/>
<path d="M53.5 50.25H63.2952C63.8629 50.25 64.4095 50.0354 64.8256 49.6493C65.2417 49.2632 65.4965 48.7341 65.5389 48.168L68.0547 24.375" stroke="#808080" stroke-width="2" stroke-miterlimit="10" stroke-linecap="round"/>
<path d="M61.375 24.375L62.5 19.875L65.8047 18.75" stroke="#808080" stroke-width="2" stroke-linecap="round" stroke-linejoin="round"/>
<path d="M51.25 24.375H69.25" stroke="#808080" stroke-width="2" stroke-miterlimit="10" stroke-linecap="round"/>
<path d="M19.7414 71.5C19.6347 71.5 19.544 71.4627 19.4694 71.388C19.3947 71.3133 19.3574 71.2227 19.3574 71.116V60.7C19.3574 60.5827 19.3947 60.4867 19.4694 60.412C19.544 60.3373 19.6347 60.3 19.7414 60.3H20.9734C21.1227 60.3 21.2294 60.3373 21.2934 60.412C21.368 60.476 21.416 60.524 21.4374 60.556L26.0454 67.724V60.7C26.0454 60.5827 26.0774 60.4867 26.1414 60.412C26.216 60.3373 26.312 60.3 26.4294 60.3H27.7734C27.8907 60.3 27.9867 60.3373 28.0614 60.412C28.136 60.4867 28.1734 60.5827 28.1734 60.7V71.1C28.1734 71.2173 28.136 71.3133 28.0614 71.388C27.9867 71.4627 27.896 71.5 27.7894 71.5H26.5414C26.392 71.5 26.2854 71.4627 26.2214 71.388C26.1574 71.3133 26.1094 71.2653 26.0774 71.244L21.4854 64.236V71.116C21.4854 71.2227 21.448 71.3133 21.3734 71.388C21.2987 71.4627 21.2027 71.5 21.0854 71.5H19.7414ZM34.1579 71.66C33.3045 71.66 32.5845 71.5107 31.9979 71.212C31.4219 70.9133 30.9792 70.492 30.6699 69.948C30.3712 69.404 30.2005 68.7693 30.1579 68.044C30.1472 67.852 30.1419 67.6173 30.1419 67.34C30.1419 67.0627 30.1472 66.828 30.1579 66.636C30.2005 65.9 30.3765 65.2653 30.6859 64.732C31.0059 64.188 31.4539 63.7667 32.0299 63.468C32.6165 63.1693 33.3259 63.02 34.1579 63.02C34.9899 63.02 35.6939 63.1693 36.2699 63.468C36.8565 63.7667 37.3045 64.188 37.6139 64.732C37.9339 65.2653 38.1152 65.9 38.1579 66.636C38.1685 66.828 38.1739 67.0627 38.1739 67.34C38.1739 67.6173 38.1685 67.852 38.1579 68.044C38.1152 68.7693 37.9392 69.404 37.6299 69.948C37.3312 70.492 36.8885 70.9133 36.3019 71.212C35.7259 71.5107 35.0112 71.66 34.1579 71.66ZM34.1579 70.076C34.7232 70.076 35.1605 69.9 35.4699 69.548C35.7792 69.1853 35.9499 68.6573 35.9819 67.964C35.9925 67.804 35.9979 67.596 35.9979 67.34C35.9979 67.084 35.9925 66.876 35.9819 66.716C35.9499 66.0333 35.7792 65.5107 35.4699 65.148C35.1605 64.7853 34.7232 64.604 34.1579 64.604C33.5925 64.604 33.1552 64.7853 32.8459 65.148C32.5365 65.5107 32.3659 66.0333 32.3339 66.716C32.3232 66.876 32.3179 67.084 32.3179 67.34C32.3179 67.596 32.3232 67.804 32.3339 67.964C32.3659 68.6573 32.5365 69.1853 32.8459 69.548C33.1552 69.9 33.5925 70.076 34.1579 70.076ZM44.1789 71.5C44.0722 71.5 43.9815 71.4627 43.9069 71.388C43.8322 71.3133 43.7949 71.2227 43.7949 71.116V60.7C43.7949 60.5827 43.8322 60.4867 43.9069 60.412C43.9815 60.3373 44.0722 60.3 44.1789 60.3H48.4669C49.2989 60.3 50.0242 60.4333 50.6429 60.7C51.2615 60.956 51.7415 61.3507 52.0829 61.884C52.4242 62.4067 52.5949 63.0627 52.5949 63.852C52.5949 64.652 52.4242 65.3133 52.0829 65.836C51.7415 66.348 51.2615 66.732 50.6429 66.988C50.0242 67.244 49.2989 67.372 48.4669 67.372H46.0829V71.116C46.0829 71.2227 46.0455 71.3133 45.9709 71.388C45.9069 71.4627 45.8162 71.5 45.6989 71.5H44.1789ZM46.0509 65.596H48.3869C49.0055 65.596 49.4802 65.452 49.8109 65.164C50.1415 64.8653 50.3069 64.428 50.3069 63.852C50.3069 63.3187 50.1522 62.892 49.8429 62.572C49.5335 62.2413 49.0482 62.076 48.3869 62.076H46.0509V65.596ZM54.5498 71.5C54.4431 71.5 54.3524 71.4627 54.2778 71.388C54.2031 71.3133 54.1658 71.2227 54.1658 71.116V60.524C54.1658 60.4173 54.2031 60.3267 54.2778 60.252C54.3524 60.1773 54.4431 60.14 54.5498 60.14H55.9738C56.0911 60.14 56.1818 60.1773 56.2458 60.252C56.3204 60.3267 56.3578 60.4173 56.3578 60.524V64.172C56.6458 63.8307 56.9978 63.5533 57.4138 63.34C57.8298 63.1267 58.3418 63.02 58.9498 63.02C59.6004 63.02 60.1658 63.1693 60.6458 63.468C61.1364 63.756 61.5151 64.1667 61.7818 64.7C62.0484 65.2333 62.1818 65.8733 62.1818 66.62V71.116C62.1818 71.2227 62.1444 71.3133 62.0698 71.388C61.9951 71.4627 61.9044 71.5 61.7978 71.5H60.3578C60.2511 71.5 60.1604 71.4627 60.0858 71.388C60.0111 71.3133 59.9738 71.2227 59.9738 71.116V66.716C59.9738 66.0973 59.8191 65.612 59.5098 65.26C59.2111 64.908 58.7738 64.732 58.1978 64.732C57.6431 64.732 57.1951 64.908 56.8538 65.26C56.5231 65.612 56.3578 66.0973 56.3578 66.716V71.116C56.3578 71.2227 56.3204 71.3133 56.2458 71.388C56.1818 71.4627 56.0911 71.5 55.9738 71.5H54.5498ZM67.8923 71.66C67.0389 71.66 66.3189 71.5107 65.7323 71.212C65.1563 70.9133 64.7136 70.492 64.4043 69.948C64.1056 69.404 63.9349 68.7693 63.8923 68.044C63.8816 67.852 63.8763 67.6173 63.8763 67.34C63.8763 67.0627 63.8816 66.828 63.8923 66.636C63.9349 65.9 64.1109 65.2653 64.4203 64.732C64.7403 64.188 65.1883 63.7667 65.7643 63.468C66.3509 63.1693 67.0603 63.02 67.8923 63.02C68.7243 63.02 69.4283 63.1693 70.0043 63.468C70.5909 63.7667 71.0389 64.188 71.3483 64.732C71.6683 65.2653 71.8496 65.9 71.8923 66.636C71.9029 66.828 71.9083 67.0627 71.9083 67.34C71.9083 67.6173 71.9029 67.852 71.8923 68.044C71.8496 68.7693 71.6736 69.404 71.3643 69.948C71.0656 70.492 70.6229 70.9133 70.0363 71.212C69.4603 71.5107 68.7456 71.66 67.8923 71.66ZM67.8923 70.076C68.4576 70.076 68.8949 69.9 69.2043 69.548C69.5136 69.1853 69.6843 68.6573 69.7163 67.964C69.7269 67.804 69.7323 67.596 69.7323 67.34C69.7323 67.084 69.7269 66.876 69.7163 66.716C69.6843 66.0333 69.5136 65.5107 69.2043 65.148C68.8949 64.7853 68.4576 64.604 67.8923 64.604C67.3269 64.604 66.8896 64.7853 66.5803 65.148C66.2709 65.5107 66.1003 66.0333 66.0683 66.716C66.0576 66.876 66.0523 67.084 66.0523 67.34C66.0523 67.596 66.0576 67.804 66.0683 67.964C66.1003 68.6573 66.2709 69.1853 66.5803 69.548C66.8896 69.9 67.3269 70.076 67.8923 70.076ZM77.3785 71.5C76.7385 71.5 76.1998 71.388 75.7625 71.164C75.3252 70.94 74.9998 70.6093 74.7865 70.172C74.5732 69.724 74.4665 69.1693 74.4665 68.508V64.876H73.2025C73.0958 64.876 73.0052 64.8387 72.9305 64.764C72.8558 64.6893 72.8185 64.5987 72.8185 64.492V63.564C72.8185 63.4573 72.8558 63.3667 72.9305 63.292C73.0052 63.2173 73.0958 63.18 73.2025 63.18H74.4665V60.524C74.4665 60.4173 74.4985 60.3267 74.5625 60.252C74.6372 60.1773 74.7332 60.14 74.8505 60.14H76.1465C76.2532 60.14 76.3438 60.1773 76.4185 60.252C76.4932 60.3267 76.5305 60.4173 76.5305 60.524V63.18H78.5305C78.6372 63.18 78.7278 63.2173 78.8025 63.292C78.8772 63.3667 78.9145 63.4573 78.9145 63.564V64.492C78.9145 64.5987 78.8772 64.6893 78.8025 64.764C78.7278 64.8387 78.6372 64.876 78.5305 64.876H76.5305V68.348C76.5305 68.7853 76.6052 69.1267 76.7545 69.372C76.9145 69.6173 77.1865 69.74 77.5705 69.74H78.6745C78.7812 69.74 78.8718 69.7773 78.9465 69.852C79.0212 69.9267 79.0585 70.0173 79.0585 70.124V71.116C79.0585 71.2227 79.0212 71.3133 78.9465 71.388C78.8718 71.4627 78.7812 71.5 78.6745 71.5H77.3785ZM84.1579 71.66C83.3045 71.66 82.5845 71.5107 81.9979 71.212C81.4219 70.9133 80.9792 70.492 80.6699 69.948C80.3712 69.404 80.2005 68.7693 80.1579 68.044C80.1472 67.852 80.1419 67.6173 80.1419 67.34C80.1419 67.0627 80.1472 66.828 80.1579 66.636C80.2005 65.9 80.3765 65.2653 80.6859 64.732C81.0059 64.188 81.4539 63.7667 82.0299 63.468C82.6165 63.1693 83.3259 63.02 84.1579 63.02C84.9899 63.02 85.6939 63.1693 86.2699 63.468C86.8565 63.7667 87.3045 64.188 87.6139 64.732C87.9339 65.2653 88.1152 65.9 88.1579 66.636C88.1685 66.828 88.1739 67.0627 88.1739 67.34C88.1739 67.6173 88.1685 67.852 88.1579 68.044C88.1152 68.7693 87.9392 69.404 87.6299 69.948C87.3312 70.492 86.8885 70.9133 86.3019 71.212C85.7259 71.5107 85.0112 71.66 84.1579 71.66ZM84.1579 70.076C84.7232 70.076 85.1605 69.9 85.4699 69.548C85.7792 69.1853 85.9499 68.6573 85.9819 67.964C85.9925 67.804 85.9979 67.596 85.9979 67.34C85.9979 67.084 85.9925 66.876 85.9819 66.716C85.9499 66.0333 85.7792 65.5107 85.4699 65.148C85.1605 64.7853 84.7232 64.604 84.1579 64.604C83.5925 64.604 83.1552 64.7853 82.8459 65.148C82.5365 65.5107 82.3659 66.0333 82.3339 66.716C82.3232 66.876 82.3179 67.084 82.3179 67.34C82.3179 67.596 82.3232 67.804 82.3339 67.964C82.3659 68.6573 82.5365 69.1853 82.8459 69.548C83.1552 69.9 83.5925 70.076 84.1579 70.076Z" fill="#808080"/>
</svg>
