<svg width="109" height="71" viewBox="0 0 109 71" fill="none" xmlns="http://www.w3.org/2000/svg">
<path fill-rule="evenodd" clip-rule="evenodd" d="M105.038 49.3235C107.042 45.4245 108.156 40.851 108.315 35.8656C104.558 38.4755 100.479 40.6224 96.1243 42.2816C86.1921 45.5678 74.7807 45.5981 62.9667 42.3697C39.5669 35.6407 21.4044 22.58 1.50408 6.18485C-15.8956 -8.74687 -32.6837 -24.7056 -48.7408 -41.5779C-54.4745 -46.9437 -59.8113 -52.6063 -65.545 -57.9721C-67.0556 -59.2557 -68.8816 -60.5932 -70.3018 -61.848C-71.722 -63.1027 -71.3007 -62.3558 -69.8166 -62.2109C-68.3325 -62.066 -71.0317 -62.364 -73.7507 -61.5851C-85.4486 -32.0756 -57.1896 15.7212 -8.82178 46.4471C39.546 77.173 91.5141 79.4265 105.366 49.9466L105.038 49.3235ZM108.658 33.2909C108.878 4.16136 81.9536 -34.4958 40.7793 -60.755C2.42774 -85.2638 -37.295 -91.5608 -59.5342 -79.2685C-57.4326 -77.6546 -55.6419 -75.9045 -54.8657 -75.3266C-48.7041 -68.9293 -42.8954 -62.2681 -37.133 -55.6686C-22.6416 -37.8817 -7.42403 -20.7639 8.43701 -4.40845C25.7881 12.3489 41.913 26.5477 63.4803 35.5165C74.2603 39.545 84.9291 40.5856 94.4217 38.5345C99.4573 37.3694 104.183 35.5495 108.519 33.1052L108.658 33.2909Z" fill="white" fill-opacity="0.55"/>
</svg>
