<svg width="111" height="179" viewBox="0 0 111 179" fill="none" xmlns="http://www.w3.org/2000/svg">
<path fill-rule="evenodd" clip-rule="evenodd" d="M42.7905 219.063C47.5806 220.1 52.7732 220.015 58.0703 218.813C54.0323 215.58 50.37 211.88 47.1257 207.757C40.25 198.215 36.2885 186.224 35.6149 172.914C34.6328 146.461 42.1121 123.776 52.4992 98.3487C62.2087 75.9524 73.2087 53.9171 85.421 32.3997C89.0888 24.8972 93.2056 17.7306 96.8733 10.228C97.703 8.28712 98.4805 5.99979 99.3109 4.16186C100.141 2.32394 99.5009 2.97197 99.8596 4.57235C100.218 6.17273 99.6022 3.25259 97.8468 0.607341C62.7883 -3.59053 22.2597 39.2489 6.60632 98.5461C-9.04701 157.843 6.47911 213.108 42.2484 219.58L42.7905 219.063ZM60.896 218.468C91.6024 210.7 122.98 171.774 136.414 121.267C148.979 74.2098 141.921 30.711 121.337 10.7009C120.364 13.354 119.14 15.7175 118.8 16.6924C114.195 24.9281 109.19 32.8652 104.235 40.7366C90.5218 60.8588 77.7623 81.5609 66.0259 102.73C54.38 125.577 45.0023 146.431 42.9982 171.573C42.4743 184.014 45.0539 195.519 50.4796 204.937C53.4388 209.913 56.9799 214.382 61.0434 218.271L60.896 218.468Z" fill="white" fill-opacity="0.55"/>
</svg>
