<svg width="20" height="20" viewBox="0 0 20 20" fill="none" xmlns="http://www.w3.org/2000/svg">
<path d="M3.33332 3.33334C2.8913 3.33334 2.46737 3.50894 2.15481 3.8215C1.84225 4.13406 1.66666 4.55798 1.66666 5.00001V8.33334C2.10868 8.33334 2.53261 8.50894 2.84517 8.8215C3.15773 9.13406 3.33332 9.55798 3.33332 10C3.33332 10.442 3.15773 10.866 2.84517 11.1785C2.53261 11.4911 2.10868 11.6667 1.66666 11.6667V15C1.66666 15.442 1.84225 15.866 2.15481 16.1785C2.46737 16.4911 2.8913 16.6667 3.33332 16.6667H16.6667C17.1087 16.6667 17.5326 16.4911 17.8452 16.1785C18.1577 15.866 18.3333 15.442 18.3333 15V11.6667C17.8913 11.6667 17.4674 11.4911 17.1548 11.1785C16.8423 10.866 16.6667 10.442 16.6667 10C16.6667 9.55798 16.8423 9.13406 17.1548 8.8215C17.4674 8.50894 17.8913 8.33334 18.3333 8.33334V5.00001C18.3333 4.55798 18.1577 4.13406 17.8452 3.8215C17.5326 3.50894 17.1087 3.33334 16.6667 3.33334H3.33332ZM12.9167 5.83334L14.1667 7.08334L7.08332 14.1667L5.83332 12.9167L12.9167 5.83334ZM7.34166 5.86668C8.15832 5.86668 8.81666 6.52501 8.81666 7.34168C8.81666 7.73287 8.66125 8.10804 8.38464 8.38466C8.10802 8.66127 7.73285 8.81668 7.34166 8.81668C6.52499 8.81668 5.86666 8.15834 5.86666 7.34168C5.86666 6.95048 6.02206 6.57531 6.29867 6.29869C6.57529 6.02208 6.95046 5.86668 7.34166 5.86668ZM12.6583 11.1833C13.475 11.1833 14.1333 11.8417 14.1333 12.6583C14.1333 13.0495 13.9779 13.4247 13.7013 13.7013C13.4247 13.9779 13.0495 14.1333 12.6583 14.1333C11.8417 14.1333 11.1833 13.475 11.1833 12.6583C11.1833 12.2671 11.3387 11.892 11.6153 11.6154C11.892 11.3387 12.2671 11.1833 12.6583 11.1833Z" fill="#F35F0F"/>
</svg>
