<?xml version="1.0" encoding="UTF-8"?>
<svg version="1.1" xmlns="http://www.w3.org/2000/svg" width="469" height="361">
<path d="M0 0 C0.96440563 -0.00199105 1.92881126 -0.0039821 2.9224413 -0.00603348 C4.49977474 -0.00166422 4.49977474 -0.00166422 6.1089735 0.00279331 C7.23213897 0.00193889 8.35530445 0.00108446 9.51250523 0.00020415 C13.28354362 -0.00144559 17.05453771 0.0040625 20.82557201 0.00952244 C23.52578361 0.00980444 26.22599247 0.00969036 28.92620373 0.00907993 C34.74345198 0.00855568 40.56068902 0.01169219 46.37793446 0.01731777 C54.78868573 0.02544611 63.19943158 0.02804936 71.61018636 0.02930576 C85.2562034 0.03149418 98.90221447 0.03814858 112.54822826 0.04760838 C125.80376181 0.05678792 139.05929374 0.0638661 152.31482983 0.06811619 C153.131953 0.06837891 153.94907617 0.06864164 154.79096065 0.06891232 C158.89024299 0.07021736 162.98952534 0.07148107 167.0888077 0.07272422 C201.09440991 0.08309029 235.10000488 0.10070291 269.10560131 0.12304783 C267.75436911 2.92218789 266.48639059 4.99390829 264.28837109 7.20097446 C263.71397289 7.78245747 263.1395747 8.36394047 262.5477705 8.96304417 C261.91926189 9.58907536 261.29075329 10.21510654 260.64319897 10.86010838 C259.97943249 11.52898579 259.31566601 12.1978632 258.63178539 12.88700962 C256.43290527 15.09980129 254.22665993 17.30507155 252.01966381 19.50976658 C250.4816326 21.05168692 248.94382465 22.59382999 247.40622997 24.13618565 C244.17645236 27.37343108 240.94281874 30.60676593 237.70667553 33.83764744 C233.58518541 37.95337508 229.47509919 42.08027941 225.36815357 46.21051407 C222.19042846 49.40307335 219.00569351 52.5885695 215.81899166 55.77216625 C214.3025936 57.28907376 212.78852217 58.80831119 211.27694607 60.33002377 C193.88202906 77.82713444 175.66664582 92.75831963 149.72278881 93.17773533 C146.51701529 93.18465925 143.3112084 93.15643957 140.10560131 93.12304783 C147.69560131 96.75304783 155.28560131 100.38304783 163.10560131 104.12304783 C163.10560131 108.12304783 163.10560131 108.12304783 161.29006481 110.41287327 C160.44036617 111.25067326 159.59066753 112.08847324 158.71522045 112.95166111 C158.24865536 113.41720402 157.78209026 113.88274693 157.30138683 114.36239719 C155.75698111 115.89891862 154.19901162 117.42089576 152.64075756 118.94336033 C151.56604101 120.00807569 150.49227683 121.07375315 149.41942883 122.1403513 C146.5924765 124.94635989 143.7541681 127.74058882 140.91291332 130.53210545 C136.36538384 135.00439158 131.83634956 139.49542789 127.30521488 143.9843111 C125.71891934 145.55287363 124.12850496 147.11715876 122.53725719 148.68069553 C121.5665812 149.63815506 120.59595183 150.59566184 119.6253767 151.55322361 C118.77488247 152.38943241 117.92438824 153.22564121 117.04812145 154.08718967 C115.05806821 155.97320608 115.05806821 155.97320608 114.10560131 158.12304783 C114.76560131 158.12562595 115.42560131 158.12820408 116.10560131 158.13086033 C157.63428855 159.75307467 197.79536062 183.27102252 228.10560131 210.12304783 C229.07626537 210.97382908 230.04692944 211.82461033 231.04700756 212.70117283 C233.10560131 215.12304783 233.10560131 215.12304783 233.03374577 216.95112324 C231.70693814 220.05594824 229.69838708 221.90823803 227.31388378 224.29571629 C226.81034654 224.8039335 226.30680929 225.31215072 225.78801334 225.83576846 C224.09643255 227.53932828 222.39431385 229.23194869 220.69202709 230.92480564 C219.477592 232.14330549 218.26379612 233.3624427 217.05059338 234.58216953 C213.74918534 237.89727847 210.43832679 241.20279686 207.12531805 244.5063076 C203.65460807 247.96942331 200.19122312 251.43985203 196.72666454 254.90911961 C190.89938344 260.74186402 185.06579555 266.56824473 179.22864819 272.39111423 C172.49818804 279.10530036 165.77853107 285.83015279 159.06448853 292.56075311 C153.29154499 298.34735921 147.51271422 304.1280371 141.72902381 309.90390182 C138.27875996 313.34950839 134.83050726 316.79706208 131.38755703 320.24997807 C128.14237813 323.50389189 124.88981612 326.75024858 121.63167286 329.99117947 C120.44362902 331.17529076 119.25806677 332.36189853 118.07532978 333.55131054 C98.78509465 352.94025662 80.08274644 361.38316296 52.74776733 361.49801123 C49.09881207 361.49624398 45.45007434 361.48007441 41.80115795 361.463624 C39.15857558 361.46277659 36.51601817 361.46312345 33.87343884 361.46495152 C28.21129659 361.46651515 22.54925905 361.45720201 16.88714314 361.440238 C8.70096125 361.41572788 0.51482936 361.40803053 -7.67138524 361.40427402 C-20.9569333 361.39772825 -34.24242571 361.37781829 -47.52794361 361.34936619 C-60.42409966 361.32177687 -73.32024052 361.30056723 -86.21642017 361.28784275 C-87.01299414 361.28705458 -87.8095681 361.28626641 -88.63028067 361.28545436 C-92.62695215 361.28153889 -96.62362374 361.27774785 -100.62029541 361.27401865 C-133.71170366 361.24298116 -166.80304369 361.19019683 -199.89439869 361.12304783 C-196.29536812 356.83974308 -192.6163236 352.72053096 -188.65517139 348.76356602 C-188.16410211 348.27164231 -187.67303283 347.77971861 -187.16708267 347.27288812 C-185.54355243 345.64772879 -183.91650778 344.02613711 -182.28941822 342.40454197 C-181.11591935 341.23132556 -179.9426414 340.05788815 -178.76956654 338.88424778 C-175.60076997 335.71516551 -172.42891013 332.54916561 -169.25647306 329.38372827 C-165.93548746 326.06901409 -162.61735287 322.7514484 -159.29890919 319.4341898 C-153.02186307 313.16024584 -146.74227325 306.88885435 -140.46175563 300.61838573 C-133.3086224 293.47644831 -126.1583446 286.33165502 -119.00830007 279.1866256 C-104.30683153 264.49559621 -89.60179761 249.80814007 -74.89439869 235.12304783 C-79.41208275 229.70791128 -84.19776549 224.68234599 -89.19469166 219.70922947 C-90.00511417 218.89866093 -90.81553669 218.08809238 -91.65051746 217.25296116 C-94.31017503 214.59399616 -96.97334923 211.93858351 -99.63658619 209.28320408 C-101.48910982 207.43254696 -103.34141172 205.58166786 -105.19350147 203.73057652 C-109.55808349 199.36909106 -113.92520621 195.01015897 -118.29326832 190.65215915 C-123.26990975 185.68673112 -128.24368046 180.71843173 -133.21722293 175.74989998 C-143.43977738 165.53777196 -153.66589702 155.32921906 -163.89439869 145.12304783 C-158.25818827 138.25588038 -151.98127565 132.04693102 -145.71373463 125.76538181 C-144.47767709 124.52304994 -143.24180666 123.28053187 -142.00610828 122.03784275 C-137.96723104 117.97804792 -133.92312974 113.92347721 -129.87877369 109.86914158 C-128.48161828 108.46793479 -127.08449575 107.06669523 -125.68740559 105.66542339 C-119.12470443 99.08370203 -112.55961632 92.50437314 -105.991575 85.92798084 C-98.4284932 78.35512143 -90.873769 70.77405046 -83.32601237 63.18591732 C-77.47721237 57.30691243 -71.62071434 51.43564737 -65.75844693 45.57007176 C-62.26342343 42.07270399 -58.77174641 38.57214632 -55.28818989 35.06335354 C-52.01046367 31.76226331 -48.72324304 28.47092633 -45.42869854 25.18662357 C-44.2264157 23.98483408 -43.02750315 22.77966117 -41.83238125 21.57075024 C-33.87740759 13.52920911 -25.99845443 6.52577745 -15.08189869 2.81054783 C-14.20920338 2.50504002 -13.33650806 2.1995322 -12.43736744 1.88476658 C-8.2548029 0.63192467 -4.36660982 -0.00199662 0 0 Z " fill="#0773F3" transform="translate(199.89439868927002,-0.1230478286743164)"/>
<path d="M0 0 C23.95376095 8.35258759 66.61710613 25.57198846 78.92622757 49.82497025 C79 52 79 52 77.18598557 54.43763351 C75.81228239 55.81026793 75.81228239 55.81026793 74.41082764 57.21063232 C73.90491569 57.72293309 73.39900374 58.23523386 72.87776113 58.7630589 C71.17079532 60.48534601 69.44644911 62.1891105 67.72167969 63.89355469 C66.49725657 65.12147719 65.27391314 66.35047712 64.05157471 67.58047485 C60.71936226 70.92698299 57.37162478 74.25755661 54.02057552 77.58518887 C50.51292286 81.07276134 47.018244 84.5732901 43.52178955 88.07208252 C37.63867173 93.95514669 31.74576295 99.82825982 25.84667969 105.6953125 C19.04407705 112.46115561 12.25549178 119.24080524 5.4747436 126.02854609 C-1.05718575 132.5668054 -7.59766124 139.09644683 -14.14247894 145.62180328 C-16.92141437 148.39260164 -19.69763943 151.16607348 -22.47171783 153.94173431 C-25.75118609 157.22208849 -29.03820486 160.49469518 -32.33094025 163.76173019 C-33.53185194 164.95554093 -34.73031077 166.15182559 -35.92597961 167.3508873 C-55.28110501 186.75040439 -73.95337363 195.2598232 -101.35783398 195.3749634 C-105.00678924 195.37319615 -108.65552697 195.35702658 -112.30444336 195.34057617 C-114.94702573 195.33972876 -117.58958314 195.34007563 -120.23216248 195.34190369 C-125.89430472 195.34346732 -131.55634226 195.33415418 -137.21845818 195.31719017 C-145.40464006 195.29268005 -153.59077195 195.2849827 -161.77698655 195.2812262 C-175.06253461 195.27468042 -188.34802703 195.25477046 -201.63354492 195.22631836 C-214.52970097 195.19872905 -227.42584183 195.1775194 -240.32202148 195.16479492 C-241.11859545 195.16400675 -241.91516941 195.16321858 -242.73588198 195.16240653 C-246.73255346 195.15849106 -250.72922505 195.15470002 -254.72589672 195.15097082 C-287.81730497 195.11993333 -320.908645 195.067149 -354 195 C-350.38970336 190.70247426 -346.69679585 186.57237573 -342.72280884 182.60255432 C-342.22765601 182.10654706 -341.73250317 181.61053981 -341.22234571 181.09950203 C-339.58499615 179.46052312 -337.94413146 177.8251121 -336.30322266 176.18969727 C-335.1198717 175.00662876 -333.93674164 173.82333927 -332.7538147 172.6398468 C-329.55815952 169.44390591 -326.35944082 166.25104749 -323.16014528 163.05875134 C-319.81113264 159.71600976 -316.46497067 156.37041703 -313.11849976 153.02513123 C-306.78832965 146.69806339 -300.45561578 140.373548 -294.12197435 134.04995531 C-286.90838294 126.84755937 -279.69764667 119.64230786 -272.48714375 112.43682015 C-257.66126099 97.62137677 -242.83181282 82.80950661 -228 68 C-223.87359072 69.88823468 -221.15093761 72.68001328 -218.0546875 75.92578125 C-216.88326499 77.12739442 -215.71137459 78.32855158 -214.5390625 79.52929688 C-212.71053751 81.41328354 -210.88617862 83.30082687 -209.0703125 85.19702148 C-198.32602394 96.3885 -188.77857068 103.65591796 -172.75 104.375 C-155.87749883 103.97327378 -145.98950493 94.30914056 -134.73852539 82.94970703 C-133.74582161 81.95479665 -132.75266455 80.96033836 -131.75909424 79.96629333 C-129.63804116 77.84232954 -127.52015591 75.71527645 -125.4047718 73.58566666 C-122.06073751 70.21921031 -118.70948569 66.8599998 -115.35728455 63.50167847 C-110.06145295 58.19451232 -104.77032576 52.88268486 -99.48127025 47.56876647 C-89.99123277 38.0342088 -80.49541673 28.5054138 -70.99447244 18.98172462 C-67.66145151 15.64029117 -64.33125897 12.2960712 -61.00330842 8.94958806 C-58.93975595 6.87541826 -56.87419479 4.80325756 -54.80812073 2.73159981 C-53.38985263 1.30818931 -51.97412241 -0.11774847 -50.55845642 -1.54374695 C-49.71888397 -2.38483505 -48.87931152 -3.22592316 -48.01429749 -4.09249878 C-47.28302171 -4.82729399 -46.55174593 -5.5620892 -45.79831028 -6.31915092 C-37.33382697 -14.230755 -9.93098173 -3.23587764 0 0 Z " fill="#13B3F2" transform="translate(354,166)"/>
<path d="M0 0 C1.33309959 -0.00929787 1.33309959 -0.00929787 2.69313049 -0.01878357 C4.56827705 -0.02587116 6.44348668 -0.02272624 8.31860352 -0.01000977 C11.17908242 0.00384655 14.03628203 -0.03021678 16.89648438 -0.06835938 C18.72265705 -0.06931075 20.54883379 -0.06745075 22.375 -0.0625 C23.65025795 -0.08238731 23.65025795 -0.08238731 24.95127869 -0.10267639 C29.18524476 -0.0366967 31.92339997 0.26818162 35.27758789 2.98071289 C38.45190493 6.29523441 38.93773079 7.8466272 39.06640625 12.31640625 C39.12248047 13.57710937 39.12248047 13.57710937 39.1796875 14.86328125 C38.15427951 21.3732109 32.48588247 26.14182306 28.01171875 30.609375 C27.36572723 31.25965164 26.71973572 31.90992828 26.0541687 32.57991028 C24.69344119 33.94635479 23.3301206 35.31022146 21.96435547 36.67163086 C19.88357875 38.74924086 17.81650113 40.83984242 15.75 42.93164062 C14.42138417 44.26252911 13.09198305 45.59263421 11.76171875 46.921875 C11.1490213 47.5437822 10.53632385 48.16568939 9.90505981 48.80644226 C5.98750246 52.68244783 2.11402271 56.26294746 -3.625 56.78125 C-8.54499958 56.15634844 -11.80364136 55.4261256 -15.24609375 51.56640625 C-17.2116775 46.88739183 -17.5532542 42.54519221 -17.546875 37.53515625 C-17.55116013 36.7810144 -17.55544525 36.02687256 -17.55986023 35.24987793 C-17.56557628 33.66317749 -17.566124 32.07645085 -17.56176758 30.48974609 C-17.55860296 28.07343619 -17.58211535 25.65834681 -17.60742188 23.2421875 C-17.60969483 21.69401195 -17.61039838 20.14583313 -17.609375 18.59765625 C-17.61858475 17.88186401 -17.62779449 17.16607178 -17.63728333 16.42858887 C-17.58246474 10.43603544 -16.13230873 6.65824726 -12.13647461 2.22680664 C-8.0654644 -0.1118149 -4.62160648 -0.02689822 0 0 Z " fill="#5DE4F4" transform="translate(17.24609375,-0.56640625)"/>
<path d="M0 0 C3.12578143 1.6720747 5.39281175 3.7856235 7 7 C7.12374456 10.00380556 7.18846049 12.98346439 7.203125 15.98828125 C7.20882507 16.88363083 7.21452515 17.77898041 7.22039795 18.70146179 C7.2298539 20.59873267 7.23638429 22.49602001 7.24023438 24.39331055 C7.24992639 27.2904953 7.28093831 30.18696662 7.3125 33.08398438 C7.31903143 34.92707912 7.32428135 36.77017894 7.328125 38.61328125 C7.3404718 39.47802567 7.3528186 40.34277008 7.36553955 41.23371887 C7.34829481 45.91118095 7.29894446 49.38468962 4 53 C-1.17174605 55.92029957 -5.48643988 56.44702881 -11.34765625 56.3984375 C-12.12257919 56.40130768 -12.89750214 56.40417786 -13.69590759 56.40713501 C-15.32372779 56.40916454 -16.951573 56.40371289 -18.5793457 56.39111328 C-21.05931434 56.37502067 -23.53765901 56.39101009 -26.01757812 56.41015625 C-27.6067744 56.40817405 -29.19596967 56.40433084 -30.78515625 56.3984375 C-31.88694969 56.40754654 -31.88694969 56.40754654 -33.01100159 56.4168396 C-38.56294789 56.34158967 -42.71034477 55.13174797 -46.8125 51.3125 C-48.5066569 48.01335235 -49.30136054 44.68183962 -49 41 C-46.69567734 35.11250737 -42.76105561 31.35731902 -38.33984375 27.01171875 C-37.59416641 26.26791458 -36.84848907 25.52411041 -36.08021545 24.75776672 C-34.50937404 23.19362632 -32.93494949 21.63307713 -31.35717773 20.07592773 C-28.93533084 17.68535885 -26.52443249 15.28416883 -24.11523438 12.88085938 C-22.58656106 11.36135159 -21.05728501 9.84244988 -19.52734375 8.32421875 C-18.80336899 7.60449387 -18.07939423 6.88476898 -17.33348083 6.14323425 C-16.66260941 5.48197037 -15.99173798 4.82070648 -15.30053711 4.1394043 C-14.7100206 3.55571579 -14.11950409 2.97202728 -13.51109314 2.37065125 C-9.71848777 -1.06946713 -4.83633619 -0.68138274 0 0 Z " fill="#5DE4F4" transform="translate(462,305)"/>
<path d="M0 0 C0.66 0.66 1.32 1.32 2 2 C0.68 2.99 -0.64 3.98 -2 5 C-2 2 -2 2 0 0 Z " fill="#11A5F2" transform="translate(39,141)"/>
</svg>
